<?xml version="1.0" encoding="utf-8"?>
<svg xmlns="http://www.w3.org/2000/svg" width="60" height="60" viewBox="0 0 60 60">
  <g id="Group_9436" data-name="Group 9436" transform="translate(-1030 -3224)">
    <rect id="Rectangle_4238" data-name="Rectangle 4238" width="60" height="60" rx="13" transform="translate(1030 3224)" fill="#1a2644"/>
    <path id="Path_6488" data-name="Path 6488" d="M18075.824,11408.4h-30.852a.925.925,0,0,1,0-1.85h30.852a.925.925,0,0,1,0,1.85Zm.734-7.054h-32.318a3.905,3.905,0,0,1-3.842-3.937v-21.072a3.907,3.907,0,0,1,3.842-3.937h32.318a3.906,3.906,0,0,1,3.84,3.938v21.072A3.9,3.9,0,0,1,18076.559,11401.349Zm-32.318-27.1a2.07,2.07,0,0,0-2.039,2.088v21.076a2.081,2.081,0,0,0,2.039,2.084h32.318a2.077,2.077,0,0,0,2.039-2.088v-21.072a2.065,2.065,0,0,0-2.039-2.088Zm13.3,19.641a2.35,2.35,0,0,1-2.328-2.336v-9.55a2.359,2.359,0,0,1,1.148-2.015,2.4,2.4,0,0,1,1.184-.321,2.284,2.284,0,0,1,1.123.294l8.594,4.781a2.326,2.326,0,0,1,0,4.071l-8.59,4.781A2.319,2.319,0,0,1,18057.539,11393.893Zm0-12.455a.568.568,0,0,0-.283.078.547.547,0,0,0-.279.491v9.55a.535.535,0,0,0,.279.49.563.563,0,0,0,.283.078.539.539,0,0,0,.271-.073l8.592-4.776a.565.565,0,0,0,0-.986l-8.588-4.777A.55.55,0,0,0,18057.543,11381.438Z" transform="translate(-17000.396 -8136.402)" fill="#fff"/>
  </g>
</svg>
