<?xml version="1.0" encoding="utf-8"?>
<svg xmlns="http://www.w3.org/2000/svg" width="60" height="60" viewBox="0 0 60 60">
  <g id="Group_9793" data-name="Group 9793" transform="translate(-524 -2991)">
    <rect id="Rectangle_4238" data-name="Rectangle 4238" width="60" height="60" rx="13" transform="translate(524 2991)" fill="#1a2644"/>
    <g id="Group_18511" data-name="Group 18511" transform="translate(533.008 3000)">
      <path id="Path_6471" data-name="Path 6471" d="M41.377,38.308H39.654V25.593h1.723a.614.614,0,0,0,.527-.932l-2.461-4.1a.614.614,0,0,0-.527-.3H29.811V14.49l1.571.785a.608.608,0,0,0,.275.065.615.615,0,0,0,.276-1.166L21.608,9.012V6.152h6.767a.615.615,0,0,0,.615-.615V.615A.615.615,0,0,0,28.375,0H20.993a.615.615,0,0,0-.615.615v8.4L10.054,14.174a.615.615,0,1,0,.55,1.1l1.571-.785v5.772H3.069a.614.614,0,0,0-.527.3l-2.461,4.1a.614.614,0,0,0,.527.932H2.331V38.308H.609a.615.615,0,0,0-.615.615v2.461A.615.615,0,0,0,.609,42H41.377a.615.615,0,0,0,.615-.615V38.923a.615.615,0,0,0-.615-.615Zm-2.953,0H29.811V25.593h8.613Zm.144-16.816,1.723,2.871H29.811V21.492ZM21.608,1.23H27.76V4.922H21.608Zm-.615,8.85,7.588,3.794V38.308H25.709V32.976h.205a.615.615,0,1,0,0-1.23H16.071a.615.615,0,0,0,0,1.23h.205v5.332H13.405V13.874Zm-.615,22.9v5.332H17.507V32.976Zm1.23,0h2.871v5.332H21.608ZM3.418,21.492h8.757v2.871H1.7Zm.144,4.1h8.613V38.308H3.562Zm37.2,15.175H1.224v-1.23H40.762Z" transform="translate(0)" fill="#fff"/>
      <path id="Path_6472" data-name="Path 6472" d="M83.8,201.567a4.784,4.784,0,1,0-4.692-4.783A4.738,4.738,0,0,0,83.8,201.567Zm0-8.319a3.536,3.536,0,1,1-3.468,3.535A3.5,3.5,0,0,1,83.8,193.248ZM72.376,204.062H69.112a.618.618,0,0,0-.612.624v3.327a.618.618,0,0,0,.612.624h3.264a.618.618,0,0,0,.612-.624v-3.327A.618.618,0,0,0,72.376,204.062Zm-.612,3.327h-2.04v-2.08h2.04Zm23.462,1.248H98.49a.618.618,0,0,0,.612-.624v-3.327a.618.618,0,0,0-.612-.624H95.226a.618.618,0,0,0-.612.624v3.327A.618.618,0,0,0,95.226,208.637Zm.612-3.327h2.04v2.08h-2.04Z" transform="translate(-62.808 -176.393)" fill="#fff"/>
      <path id="Path_6473" data-name="Path 6473" d="M83.462,220.383l1.224.832a.6.6,0,0,0,.849-.173.631.631,0,0,0-.17-.865l-.952-.646v-1.747a.612.612,0,1,0-1.224,0v2.08A.626.626,0,0,0,83.462,220.383Zm-11.085,13.4H69.112a.624.624,0,0,0,0,1.248h3.264a.624.624,0,0,0,0-1.248Zm26.114,0H95.226a.624.624,0,0,0,0,1.248H98.49a.624.624,0,0,0,0-1.248Z" transform="translate(-62.808 -199.528)" fill="#fff"/>
    </g>
  </g>
</svg>
