<?xml version="1.0" encoding="utf-8"?>
<svg xmlns="http://www.w3.org/2000/svg" width="60" height="60" viewBox="0 0 60 60">
  <g id="Group_18514" data-name="Group 18514" transform="translate(-777 -3266)">
    <rect id="Rectangle_4238" data-name="Rectangle 4238" width="60" height="60" rx="13" transform="translate(777 3266)" fill="#1a2644"/>
    <path id="Path_6487" data-name="Path 6487" d="M18067.736,11457.5h-26.441a.768.768,0,0,1-.77-.769v-28.1l0-.023a.64.64,0,0,1-.02-.166v-6.475a.77.77,0,0,1,.766-.771h3.863v-5.936a.76.76,0,0,1,.314-.6.745.745,0,0,1,.457-.153.772.772,0,0,1,.207.027l21.764,6.678.025,0a.779.779,0,0,1,.6.754v34.769A.766.766,0,0,1,18067.736,11457.5Zm-25.7-34.776h0v3.8l.006.028a.708.708,0,0,1,.025.176v29.241h24.9v-33.243Zm4.637-6.437h0v4.905l17.73.018-17.4-4.819-.33-.1Zm17.5,36.748h-19.32a.764.764,0,1,1,0-1.527h19.32a.764.764,0,1,1,0,1.527Zm0-5.252h-19.32a.763.763,0,1,1,0-1.526h19.32a.763.763,0,1,1,0,1.526Zm0-5.252h-19.32a.763.763,0,1,1,0-1.525h19.32a.763.763,0,1,1,0,1.525Zm.029-3.922h-19.324a.771.771,0,0,1-.771-.769v-11.42a.767.767,0,0,1,.771-.76h19.324a.766.766,0,0,1,.768.76v11.42A.77.77,0,0,1,18064.2,11438.61Zm-18.584-11.424h0l.025,9.642v.254h17.789v-9.9Z" transform="translate(-17247.504 -8140.003)" fill="#fff"/>
  </g>
</svg>
