<?xml version="1.0" encoding="utf-8"?>
<svg xmlns="http://www.w3.org/2000/svg" width="60" height="60" viewBox="0 0 60 60">
  <g id="Group_9435" data-name="Group 9435" transform="translate(-1030 -2954)">
    <rect id="Rectangle_4238" data-name="Rectangle 4238" width="60" height="60" rx="13" transform="translate(1030 2954)" fill="#1a2644"/>
    <g id="Group_18516" data-name="Group 18516" transform="translate(0 -0.501)">
      <path id="Path_6489" data-name="Path 6489" d="M18063.33,11389.669l-1.928-3.332a4.651,4.651,0,0,1-.791,0l-1.939,3.328a.662.662,0,0,1-.572.335.671.671,0,0,1-.641-.464l-.41-1.273-1.328.29h-.023a.823.823,0,0,1-.107.009.666.666,0,0,1-.533-.272.651.651,0,0,1-.041-.728l2.068-3.575a4.231,4.231,0,0,1-.451-1.393c-4.941.124-9.643.455-13.6.96a1.654,1.654,0,0,1-.344.04c-.783,0-1.455-.582-1.939-1.671a10.215,10.215,0,0,1-.727-3.477l-.021-.451h.008v-.008c0-.06,0-.122,0-.189a11.257,11.257,0,0,1,.643-3.878c.625-1.585,1.451-1.92,2.041-1.92a1.343,1.343,0,0,1,.346.044,149.3,149.3,0,0,0,17.969,1.009,115.451,115.451,0,0,0,18-1.018,1.7,1.7,0,0,1,.277-.022,1.716,1.716,0,0,1,1.123.425c1.525,1.3,1.594,5.321,1.594,5.36s-.068,4.063-1.594,5.357a1.716,1.716,0,0,1-1.119.425,1.52,1.52,0,0,1-.285-.022,98.046,98.046,0,0,0-13.629-.988,4.38,4.38,0,0,1-.455,1.422l2.076,3.57a.668.668,0,0,1-.578,1,.731.731,0,0,1-.141-.014l-1.322-.285-.406,1.273a.673.673,0,0,1-1.219.133Zm-5.189-2.394.137.419.98-1.7a4.615,4.615,0,0,1-1.3-.853l-1.025,1.777.424-.093a.729.729,0,0,1,.141-.02A.671.671,0,0,1,18058.141,11387.275Zm4.609-1.278.986,1.693.131-.411a.676.676,0,0,1,.639-.47.813.813,0,0,1,.146.02l.424.093-1.033-1.777A4.461,4.461,0,0,1,18062.75,11386Zm-4.822-4.039a3.075,3.075,0,1,0,3.076-3.061A3.071,3.071,0,0,0,18057.928,11381.958Zm-15.258.3.076-.009a1.264,1.264,0,0,0,.521-.586h-1.156C18042.346,11382.1,18042.561,11382.244,18042.67,11382.258Zm36.551-8.905a104.716,104.716,0,0,1-15.215,1.019v4.37a4.36,4.36,0,0,1,1.355,2.5,98.077,98.077,0,0,1,13.855,1l.018,0h.059a.367.367,0,0,0,.248-.1c.736-.625,1.119-3.159,1.119-4.344,0-1.38-.437-3.757-1.119-4.342a.379.379,0,0,0-.256-.108A.3.3,0,0,0,18079.221,11373.353Zm-33.846,4.445a10.316,10.316,0,0,1-.8,4.236c3.656-.406,7.822-.67,12.07-.772a4.352,4.352,0,0,1,1.354-2.521v-4.379c-4.76-.08-9.395-.357-13.424-.8A10.331,10.331,0,0,1,18045.375,11377.8Zm-1.855-1.4a6.5,6.5,0,0,1-.2,3.949l.43-.013a10.924,10.924,0,0,0,.277-2.534,12.571,12.571,0,0,0-.078-1.416Zm-2.174,1.4c0,.135,0,.269.01.426v.054a3.9,3.9,0,0,0,.43,1.88.748.748,0,0,0,.063.082,4.84,4.84,0,0,0,.137-4.255.672.672,0,0,1,.068-.62.686.686,0,0,1,.555-.291l1.088-.021a2.781,2.781,0,0,0-.926-1.7l-.113-.008C18042.268,11373.424,18041.346,11374.828,18041.346,11377.8Zm21.32.089v-3.5c-.51,0-1.07,0-1.662,0-.537,0-1.082,0-1.66-.009v3.5a4.405,4.405,0,0,1,3.322,0Zm-3.662,4.075a1.994,1.994,0,1,1,2,1.976A1.982,1.982,0,0,1,18059,11381.962Z" transform="translate(-17001.004 -8382)" fill="#fff"/>
      <path id="Union_3" data-name="Union 3" d="M14.391,25.366A11.567,11.567,0,0,1,9.58,23.542,3.425,3.425,0,0,1,7.986,20.51c.045-2.508.045-7.89.045-8.366-.256-.1-1.992-.823-2.807-1.164-.01.432-.014,2.673-.021,4.664-.006.7-.006,1.37-.01,1.945a2.437,2.437,0,0,1,1.746,2.3,2.463,2.463,0,0,1-2.5,2.412,2.406,2.406,0,0,1-.707-4.731c0-2.517.01-6.816.01-7.238-.271-.112-2.256-.947-3.1-1.3C.33,8.9,0,8.729,0,8.284s.32-.606.639-.741c3.289-1.393,6.623-2.561,9.85-3.689,3.268-1.141,6.646-2.318,9.963-3.733a1.309,1.309,0,0,1,1.107,0C24.871,1.536,28.24,2.713,31.5,3.85c3.23,1.127,6.568,2.3,9.854,3.688.311.13.639.31.643.746s-.326.621-.639.75c-2.189.926-6.953,2.975-7.375,3.159,0,.472,0,5.886.027,8.424A3.287,3.287,0,0,1,32.6,23.4a11.852,11.852,0,0,1-4.959,1.959A35.313,35.313,0,0,1,21.006,26,35.092,35.092,0,0,1,14.391,25.366ZM9.463,13.253c0,.679.006,1.362.006,2.04,0,1.73,0,3.518-.014,5.275a1.9,1.9,0,0,0,.877,1.725A10.344,10.344,0,0,0,12.275,23.3a21.316,21.316,0,0,0,6.25,1.164c.943.058,1.822.085,2.686.085a29.827,29.827,0,0,0,6.678-.7,10.087,10.087,0,0,0,3.678-1.469,2.121,2.121,0,0,0,.98-1.874c-.021-1.725-.018-3.482-.014-5.18,0-.679.006-1.357.006-2.04v-.5c-.055.018-.1.036-.141.054-.107.041-.193.077-.279.113L29.7,13.981c-2.615,1.105-5.318,2.251-7.969,3.392a1.869,1.869,0,0,1-.725.161,1.8,1.8,0,0,1-.742-.171c-2.654-1.141-5.365-2.286-7.984-3.4q-1.181-.5-2.361-1c-.1-.041-.213-.086-.334-.13-.039-.014-.078-.031-.125-.05ZM3.109,19.889a1.3,1.3,0,0,0,1.328,1.276,1.279,1.279,0,1,0,0-2.556A1.305,1.305,0,0,0,3.109,19.889ZM21.734,8.167c.063.436-.18.728-.693.822-.148.027-.3.041-.445.054l-.09.009c-.307.027-.613.058-.92.086l-1.447.134q-4.23.4-8.465.818L8,10.257l-.549.054c1.229.549,9.035,3.882,13.27,5.662a.657.657,0,0,0,.262.045.957.957,0,0,0,.367-.067c4.51-1.9,16.424-6.95,18.359-7.773C38.154,7.62,21.693,1.922,21.521,1.864a2.833,2.833,0,0,0-.605-.076,1.034,1.034,0,0,0-.406.067C15.992,3.778,7.637,6.6,4.068,7.795c-.721.247-1.246.422-1.477.5.662.283,2.045.885,2.191.952.275-.036,4.531-.561,6.547-.755q2.552-.242,5.1-.494l1.283-.122c.346-.035.7-.071,1.043-.1.691-.067,1.4-.139,2.1-.2a.974.974,0,0,1,.1,0A.727.727,0,0,1,21.734,8.167Z" transform="translate(1039 2961.001)" fill="#fff"/>
    </g>
  </g>
</svg>
