<?xml version="1.0" encoding="utf-8"?>
<svg xmlns="http://www.w3.org/2000/svg" width="60" height="60" viewBox="0 0 60 60">
  <g id="Group_18515" data-name="Group 18515" transform="translate(-777 -3266)">
    <rect id="Rectangle_4238" data-name="Rectangle 4238" width="60" height="60" rx="13" transform="translate(777 3266)" fill="#1a2644"/>
    <path id="Path_6486" data-name="Path 6486" d="M18040.25,11455.713a1.327,1.327,0,0,1-.242-1.026,20.245,20.245,0,0,1,2.914-9.7,19.4,19.4,0,0,1,7.768-6.844,1.908,1.908,0,0,0,.232-.135l.049-.03a11.454,11.454,0,0,1-3-6.133c-.084-.561-.111-1.132-.139-1.683,0-.142-.008-.284-.016-.422-.021-.429-.035-1.212-.041-1.4l-.559-.614v-.042c0-.015-.021-.422-.021-.729,0-1.211,0-4.126.006-4.661-.6-.186-4.33-1.349-5.867-1.841a1.764,1.764,0,0,1-.328-.17.8.8,0,0,1-.326-.782.845.845,0,0,1,.594-.667l.012,0c5.611-1.687,10.826-3.229,15.961-4.716a2.715,2.715,0,0,1,1.5,0c5.09,1.478,10.465,3.059,15.967,4.709l.014.007a.768.768,0,0,1,.543.612.818.818,0,0,1-.309.816c-.08.057-.156.125-.234.19a.775.775,0,0,1-.25.094.461.461,0,0,0-.086.021l-1.5.436v6.641a2.324,2.324,0,1,1-1.385.019v-6.257l-2.746.794.025,5.888-.615.434c0,.073,0,.211.012.355a11.912,11.912,0,0,1-3.135,9.1,1.363,1.363,0,0,0,.158.09c.182.1.35.2.525.291a19.433,19.433,0,0,1,7.539,6.931,20.1,20.1,0,0,1,2.721,9.656,1.017,1.017,0,0,1-.219.8,1.166,1.166,0,0,1-.879.265c-5.848,0-11.027,0-15.82,0-6.443,0-12.3,0-17.908.011A1.221,1.221,0,0,1,18040.25,11455.713Zm18.795-9.428a14.446,14.446,0,0,1,3.668,8.212h11.811c-.023-.244-.051-.481-.072-.715-.055-.587-.115-1.133-.211-1.677a18.371,18.371,0,0,0-2.143-5.879,17.3,17.3,0,0,0-4.18-4.761c-.209-.17-.789-.566-.984-.7C18066.281,11441.148,18060.732,11444.4,18059.045,11446.285Zm-10.975-4.8a16.907,16.907,0,0,0-6.051,9.5,22.307,22.307,0,0,0-.416,2.46c-.051.339-.094.693-.15,1.048h19.723a11.809,11.809,0,0,0-2.32-6.006,22.352,22.352,0,0,0-9.734-7.237l-.461-.206Zm2.408-1.55a38.994,38.994,0,0,1,7.137,4.624c.137.1.273.207.412.317a35.432,35.432,0,0,1,7.529-4.941,13.628,13.628,0,0,0-1.4-.921c-.221.117-1,.539-1.58.842a9.223,9.223,0,0,1-9.271-.068,12.729,12.729,0,0,1-1.273-.891A9.837,9.837,0,0,0,18050.479,11439.937Zm3.238-1.6a7.145,7.145,0,0,0,5.164,1.223,9.356,9.356,0,0,0,7.742-10.328,23.706,23.706,0,0,1-8.58,1.672,24.14,24.14,0,0,1-8.734-1.71C18049.221,11433.28,18050.67,11436.269,18053.717,11438.339Zm17.357-8.471a1.162,1.162,0,1,0,1.158-1.169A1.164,1.164,0,0,0,18071.074,11429.868Zm-22.371-5.132c0,.015-.01,1.08-.029,1.6a1.176,1.176,0,0,0,.768,1.232,16.524,16.524,0,0,0,6.422,1.793c.8.068,1.586.106,2.324.106a17.673,17.673,0,0,0,8.271-1.853c.229-.109.654-.358.809-.437.006-.091.02-.266.025-.318.068-1.031.057-2.068.047-3.164,0-.345-.006-.7-.006-1.053-.742.212-1.482.429-2.205.635-1.951.562-3.793,1.089-5.643,1.679a5.094,5.094,0,0,1-1.5.248,4.65,4.65,0,0,1-1.406-.234c-1.85-.58-3.7-1.121-5.656-1.681-.727-.213-1.48-.435-2.232-.652C18048.689,11423.439,18048.7,11424.726,18048.7,11424.736Zm8.648-9.144c-1.59.44-7.309,2.128-11.1,3.244-1.008.3-1.895.556-2.531.74,1.7.54,9.59,2.909,13.916,4.175a1.413,1.413,0,0,0,.76,0c2.324-.678,4.691-1.376,6.988-2.053.43-.134.863-.259,1.3-.387-.469-.074-1.021-.116-1.434-.153l-.332-.031c-1.5-.138-2.74-.3-4.051-.46-.789-.1-1.605-.2-2.512-.3a.674.674,0,0,1-.221-.069.691.691,0,0,1-.4-.7.672.672,0,0,1,.523-.586.7.7,0,0,1,.209-.016c2.777.211,10.838,1.359,11.338,1.434.176-.049,1.389-.36,2.191-.661a.149.149,0,0,0,.1-.147.137.137,0,0,0-.109-.138l-2.113-.625c-3.689-1.086-7.512-2.208-11.273-3.285a2.179,2.179,0,0,0-.557-.064A2.518,2.518,0,0,0,18057.352,11415.593Z" transform="translate(-17251 -8138.998)" fill="#fff"/>
  </g>
</svg>
