<?xml version="1.0" encoding="utf-8"?>
<svg xmlns="http://www.w3.org/2000/svg" width="60" height="60" viewBox="0 0 60 60">
  <g id="Group_18512" data-name="Group 18512" transform="translate(-524 -3224)">
    <rect id="Rectangle_4238" data-name="Rectangle 4238" width="60" height="60" rx="13" transform="translate(524 3224)" fill="#1a2644"/>
    <path id="Path_6320" data-name="Path 6320" d="M41.388,8.562C34.769,5.752,28.152,3.937,21.538,1.119a1.27,1.27,0,0,0-1.069,0C13.852,3.938,7.233,5.755.612,8.565.278,8.706,0,8.87,0,9.266s.283.568.61.706L3.749,11.29s-.013,4.664-.009,7.338a2.392,2.392,0,0,0-1.8,2.286A2.418,2.418,0,0,0,4.4,23.287a2.418,2.418,0,0,0,2.456-2.373,2.388,2.388,0,0,0-1.747-2.271c.009-2.405.021-6.582.032-6.746.853.358,2.911,1.21,2.911,1.21s0,5.782-.046,8.432a3.394,3.394,0,0,0,1.577,3,12.055,12.055,0,0,0,4.805,1.824,34.734,34.734,0,0,0,13.257-.005A11.583,11.583,0,0,0,32.593,24.4a3.239,3.239,0,0,0,1.4-2.755c-.033-2.682-.026-8.489-.026-8.489s5.107-2.2,7.423-3.184c.329-.139.613-.31.611-.706s-.281-.563-.612-.7M5.777,20.914A1.381,1.381,0,1,1,4.4,19.58a1.359,1.359,0,0,1,1.38,1.334m25.84,2.55a10.04,10.04,0,0,1-3.7,1.484,33.077,33.077,0,0,1-9.4.614,21.211,21.211,0,0,1-6.281-1.172,10.481,10.481,0,0,1-1.958-1.022,1.949,1.949,0,0,1-.9-1.773c.026-2.447.009-4.895.009-7.342v-.542c.21.083.37.141.527.208,3.459,1.468,6.922,2.929,10.373,4.416a1.646,1.646,0,0,0,1.428.006c3.465-1.492,6.941-2.959,10.413-4.434.131-.056.265-.106.486-.195V14.3c0,2.416-.021,4.832.011,7.248a2.182,2.182,0,0,1-1.007,1.921M21.365,17.006a.971.971,0,0,1-.672.023c-4.383-1.845-13.284-5.655-13.468-5.76.888-.089,1.654-.166,2.419-.24q4.24-.412,8.48-.821c.791-.076,1.584-.146,2.375-.22.178-.017.357-.03.532-.062.488-.089.712-.359.651-.77a.7.7,0,0,0-.826-.554c-1.051.095-2.1.2-3.15.306q-3.2.311-6.4.62c-2.1.2-6.574.758-6.574.758s-1.688-.742-2.323-1.01c.329-.148,12.338-4.063,18.075-6.512a2.124,2.124,0,0,1,1.051.007S39.627,9.04,39.883,9.155c-1.47.626-13.852,5.884-18.519,7.851" transform="translate(533.5 3240.5)" fill="#fff" stroke="#fff" stroke-width="0.1"/>
  </g>
</svg>
